<?xml version="1.0" encoding="UTF-8"?>
<!DOCTYPE svg PUBLIC "-//W3C//DTD SVG 1.1//EN" "http://www.w3.org/Graphics/SVG/1.1/DTD/svg11.dtd">
<svg xmlns="http://www.w3.org/2000/svg" version="1.1" width="1024px" height="1024px" style="shape-rendering:geometricPrecision; text-rendering:geometricPrecision; image-rendering:optimizeQuality; fill-rule:evenodd; clip-rule:evenodd" xmlns:xlink="http://www.w3.org/1999/xlink">
<g><path style="opacity:1" fill="#fdfdfd" d="M -0.5,-0.5 C 340.833,-0.5 682.167,-0.5 1023.5,-0.5C 1023.5,210.833 1023.5,422.167 1023.5,633.5C 952.757,565.591 883.09,496.424 814.5,426C 736.059,348.225 657.726,270.558 579.5,193C 577.956,191.813 576.289,191.48 574.5,192C 575.774,192.977 575.774,193.811 574.5,194.5C 553.256,160.026 523.256,149.192 484.5,162C 470.252,168.579 458.752,178.412 450,191.5C 410.971,258.229 372.471,325.229 334.5,392.5C 332.792,395.242 330.625,397.575 328,399.5C 326.5,399 325,398.5 323.5,398C 297.169,397.5 270.835,397.333 244.5,397.5C 230.779,398.603 221.612,405.603 217,418.5C 216.667,475.167 216.333,531.833 216,588.5C 181.267,647.575 146.934,706.908 113,766.5C 101.923,800.205 110.09,828.205 137.5,850.5C 137.281,851.675 137.614,852.675 138.5,853.5C 195.521,910.188 252.521,966.854 309.5,1023.5C 206.167,1023.5 102.833,1023.5 -0.5,1023.5C -0.5,682.167 -0.5,340.833 -0.5,-0.5 Z"/></g>
<g><path style="opacity:1" fill="#fc8c11" d="M 574.5,194.5 C 619.167,271.167 663.833,347.833 708.5,424.5C 708.167,424.5 707.833,424.5 707.5,424.5C 687.833,424.5 668.167,424.5 648.5,424.5C 648.539,421.911 647.539,419.911 645.5,418.5C 608.922,354.072 572.089,289.739 535,225.5C 525.174,211.669 512.674,208.503 497.5,216C 493.768,218.945 490.601,222.445 488,226.5C 449.557,292.391 411.391,358.391 373.5,424.5C 363.773,423.861 354.44,424.528 345.5,426.5C 345.5,432.167 345.5,437.833 345.5,443.5C 344.812,438.433 344.145,433.267 343.5,428C 344.394,425.932 345.06,423.765 345.5,421.5C 344.681,413.814 341.181,407.814 335,403.5C 334.383,402.551 334.549,401.718 335.5,401C 333.956,400.71 332.623,400.044 331.5,399C 332.914,397.007 333.914,394.84 334.5,392.5C 372.471,325.229 410.971,258.229 450,191.5C 458.752,178.412 470.252,168.579 484.5,162C 523.256,149.192 553.256,160.026 574.5,194.5 Z"/></g>
<g><path style="opacity:1" fill="#f0f0f0" d="M 1023.5,633.5 C 1023.5,763.5 1023.5,893.5 1023.5,1023.5C 785.5,1023.5 547.5,1023.5 309.5,1023.5C 252.521,966.854 195.521,910.188 138.5,853.5C 137.614,852.675 137.281,851.675 137.5,850.5C 147.907,858.2 159.573,862.866 172.5,864.5C 396.473,865.664 620.473,865.83 844.5,865C 849.876,864.215 855.209,863.215 860.5,862C 862.491,861.626 864.158,860.793 865.5,859.5C 886.66,851.842 901.493,837.509 910,816.5C 916.827,797.254 915.494,778.587 906,760.5C 857.273,678.613 808.773,596.613 760.5,514.5C 793.313,516.682 807.646,501.349 803.5,468.5C 806.365,453.941 802.698,441.441 792.5,431C 788.557,428.196 784.223,426.196 779.5,425C 755.836,424.5 732.169,424.333 708.5,424.5C 663.833,347.833 619.167,271.167 574.5,194.5C 575.774,193.811 575.774,192.977 574.5,192C 576.289,191.48 577.956,191.813 579.5,193C 657.726,270.558 736.059,348.225 814.5,426C 883.09,496.424 952.757,565.591 1023.5,633.5 Z"/></g>
<g><path style="opacity:1" fill="#feb144" d="M 645.5,418.5 C 645.539,419.583 645.873,420.583 646.5,421.5C 555.663,422.055 464.997,423.055 374.5,424.5C 374.167,424.5 373.833,424.5 373.5,424.5C 411.391,358.391 449.557,292.391 488,226.5C 490.601,222.445 493.768,218.945 497.5,216C 512.674,208.503 525.174,211.669 535,225.5C 572.089,289.739 608.922,354.072 645.5,418.5 Z"/></g>
<g><path style="opacity:1" fill="#fb8b10" d="M 244.5,397.5 C 245.952,398.302 247.618,398.802 249.5,399C 269.5,399.333 289.5,399.667 309.5,400C 307.396,400.791 306.063,402.291 305.5,404.5C 303.37,404.525 301.37,405.025 299.5,406C 302.265,406.421 303.432,407.921 303,410.5C 301.667,409.833 300.667,408.833 300,407.5C 296.841,408.745 297.007,409.912 300.5,411C 298.402,413.826 298.235,416.659 300,419.5C 300.333,418.833 300.667,418.167 301,417.5C 302.113,418.711 303.28,418.711 304.5,417.5C 305.845,418.347 306.845,419.513 307.5,421C 306.975,421.692 306.308,422.192 305.5,422.5C 303.023,422.735 300.69,422.235 298.5,421C 300.891,421.691 300.891,422.691 298.5,424C 299.126,424.75 299.626,425.584 300,426.5C 301.533,426.944 303.033,427.277 304.5,427.5C 302.615,428.197 302.282,429.197 303.5,430.5C 303.167,430.833 302.833,431.167 302.5,431.5C 301.749,430.624 301.249,429.624 301,428.5C 300.692,429.308 300.192,429.975 299.5,430.5C 298.167,429.167 296.833,429.167 295.5,430.5C 294.402,426.639 293.569,426.639 293,430.5C 292.333,429.167 291.667,429.167 291,430.5C 289.915,428.343 288.749,428.176 287.5,430C 290.362,430.93 292.695,432.597 294.5,435C 292.888,435.72 291.388,435.554 290,434.5C 289.812,436.061 290.645,436.728 292.5,436.5C 292.259,439.999 293.092,440.332 295,437.5C 295.333,439.047 294.833,440.38 293.5,441.5C 294.687,442.519 295.687,443.686 296.5,445C 295.167,446.667 295.167,448.333 296.5,450C 296.167,450.167 295.833,450.333 295.5,450.5C 294.749,449.624 294.249,448.624 294,447.5C 293.009,448.939 291.676,449.939 290,450.5C 289.316,452.479 289.816,454.146 291.5,455.5C 290.371,457.529 290.871,457.863 293,456.5C 293.667,459.167 294.333,459.167 295,456.5C 296.84,457.833 297.34,457.666 296.5,456C 297.935,456.311 299.268,456.145 300.5,455.5C 301.281,456.729 301.781,458.062 302,459.5C 302.049,456.584 303.216,455.584 305.5,456.5C 306.251,455.624 306.751,454.624 307,453.5C 307.286,455.999 307.119,458.165 306.5,460C 307.744,460.456 308.577,459.956 309,458.5C 310.232,461.755 312.232,462.088 315,459.5C 316.385,460.551 317.385,461.884 318,463.5C 319.297,462.216 320.464,462.383 321.5,464C 320.929,465.205 320.262,466.372 319.5,467.5C 318.117,464.924 317.283,465.258 317,468.5C 316.751,467.376 316.251,466.376 315.5,465.5C 315.437,468.191 313.77,469.024 310.5,468C 311.167,467.333 311.833,466.667 312.5,466C 311.027,465.29 310.36,464.124 310.5,462.5C 309.127,462.343 307.793,462.51 306.5,463C 306.833,463.333 307.167,463.667 307.5,464C 304.924,464.782 302.924,466.282 301.5,468.5C 302.09,469.799 303.09,470.632 304.5,471C 303.167,471.667 301.833,472.333 300.5,473C 301.5,473.333 302.5,473.667 303.5,474C 303.167,474.333 302.833,474.667 302.5,475C 304.283,476.067 304.783,477.567 304,479.5C 302.796,478.529 302.296,477.529 302.5,476.5C 299.557,477.244 296.557,477.744 293.5,478C 295.5,478.333 297.5,478.667 299.5,479C 298.584,479.374 297.75,479.874 297,480.5C 296.652,485.183 294.152,487.349 289.5,487C 290.833,487.333 292.167,487.667 293.5,488C 291.448,488.93 289.948,490.43 289,492.5C 288.842,496.09 288.009,499.59 286.5,503C 288.259,503.267 289.925,504.1 291.5,505.5C 292.906,504.332 294.072,504.665 295,506.5C 298.161,504.584 297.994,502.75 294.5,501C 295.833,500.333 295.833,499.667 294.5,499C 296.878,498.026 296.544,497.359 293.5,497C 294.77,496.1 295.77,494.934 296.5,493.5C 296.833,493.833 297.167,494.167 297.5,494.5C 297.694,496.263 297.694,498.097 297.5,500C 298.624,500.249 299.624,500.749 300.5,501.5C 299.584,503.784 300.584,504.951 303.5,505C 301.161,507.839 298.494,510.339 295.5,512.5C 296.529,512.296 297.529,512.796 298.5,514C 295.833,515 295.833,516 298.5,517C 297.833,518.333 296.833,519.333 295.5,520C 296.76,521.113 297.927,521.28 299,520.5C 300.758,521.469 301.258,522.636 300.5,524C 301.328,524.915 302.328,525.581 303.5,526C 302.833,527 302.167,528 301.5,529C 302.728,531.14 304.395,532.807 306.5,534C 305.672,534.915 304.672,535.581 303.5,536C 304.451,536.718 304.617,537.551 304,538.5C 302.602,537.949 301.268,537.616 300,537.5C 299.25,538.126 298.416,538.626 297.5,539C 297.5,540.333 297.5,541.667 297.5,543C 299.013,545.023 300.346,544.856 301.5,542.5C 303.533,544.441 305.7,544.775 308,543.5C 312.119,543.933 312.619,545.6 309.5,548.5C 307.261,550.12 305.427,549.787 304,547.5C 303.396,549.686 302.23,549.852 300.5,548C 301.654,547.086 301.487,546.253 300,545.5C 298.024,548.105 296.857,550.772 296.5,553.5C 297.002,554.521 297.668,554.688 298.5,554C 299.09,552.491 299.756,550.991 300.5,549.5C 301.308,549.808 301.975,550.308 302.5,551C 301.289,551.893 301.289,552.726 302.5,553.5C 303.5,552.833 304.5,552.167 305.5,551.5C 307.201,551.19 308.868,551.69 310.5,553C 309.833,553.667 309.167,554.333 308.5,555C 310.087,555.862 311.754,556.529 313.5,557C 312.833,558 312.167,559 311.5,560C 312.386,561.217 313.386,562.551 314.5,564C 312.122,564.974 312.456,565.641 315.5,566C 314.672,566.915 313.672,567.581 312.5,568C 315.993,570.136 319.326,569.969 322.5,567.5C 322.833,567.833 323.167,568.167 323.5,568.5C 320.864,570.064 321.031,571.397 324,572.5C 325.522,570.978 327.022,569.478 328.5,568C 327.077,566.588 327.244,565.421 329,564.5C 329.318,566.061 330.151,567.228 331.5,568C 330.183,569.767 328.516,571.101 326.5,572C 327.833,572.667 327.833,573.333 326.5,574C 330.376,573.651 330.376,574.484 326.5,576.5C 327.762,578.575 327.595,580.575 326,582.5C 324.127,580.61 323.294,578.61 323.5,576.5C 322.667,577.5 321.833,578.5 321,579.5C 319.334,578.66 319.167,579.16 320.5,581C 319.167,581.333 317.833,581.667 316.5,582C 318.116,582.615 319.449,583.615 320.5,585C 319.2,586.694 317.533,588.694 315.5,591C 317.936,593.637 317.77,596.471 315,599.5C 312.33,595.45 309.83,595.617 307.5,600C 308.833,600.333 310.167,600.667 311.5,601C 311.043,601.414 310.709,601.914 310.5,602.5C 312.703,604.295 313.869,606.629 314,609.5C 316.138,609.852 318.304,609.352 320.5,608C 318.343,606.915 318.176,605.749 320,604.5C 324.467,606.283 324.634,608.449 320.5,611C 322.557,611.305 324.557,611.305 326.5,611C 326.957,611.414 327.291,611.914 327.5,612.5C 326.5,613.167 325.5,613.833 324.5,614.5C 325.62,616.596 327.12,616.93 329,615.5C 329.931,617.459 330.764,619.459 331.5,621.5C 329.412,622.489 327.412,622.156 325.5,620.5C 324.069,620.977 322.736,621.643 321.5,622.5C 321.808,623.308 322.308,623.975 323,624.5C 323.423,623.044 324.256,622.544 325.5,623C 325.085,625.149 323.585,626.983 321,628.5C 320.667,627.833 320.333,627.167 320,626.5C 320.988,629.46 321.322,632.46 321,635.5C 321.667,632.833 322.333,632.833 323,635.5C 323.622,633.269 324.789,631.435 326.5,630C 325.833,629 325.167,628 324.5,627C 326.38,627.51 328.213,627.343 330,626.5C 331.167,628.333 332.667,629.833 334.5,631C 333.747,632.487 332.914,632.654 332,631.5C 331.667,632.5 331.333,633.5 331,634.5C 329.582,632.637 327.749,632.137 325.5,633C 327.883,633.065 328.55,633.898 327.5,635.5C 328.922,636.547 330.422,636.547 332,635.5C 333.917,636.382 334.917,637.715 335,639.5C 333.667,638.833 332.667,637.833 332,636.5C 330.676,637.88 329.343,638.214 328,637.5C 324.707,640.472 325.541,641.972 330.5,642C 328.962,645.242 327.129,645.742 325,643.5C 324.632,644.91 323.799,645.91 322.5,646.5C 322.874,645.229 322.208,644.062 320.5,643C 323.167,642.333 323.167,641.667 320.5,641C 323.849,640.911 324.349,639.744 322,637.5C 321.228,638.849 320.061,639.682 318.5,640C 319.731,641.183 319.731,642.349 318.5,643.5C 317.522,643.977 316.689,644.643 316,645.5C 315.667,644.833 315.333,644.167 315,643.5C 314.097,644.701 312.931,645.535 311.5,646C 312.623,647.044 313.956,647.71 315.5,648C 314.833,648.333 314.167,648.667 313.5,649C 314.167,650.333 314.833,651.667 315.5,653C 311.489,653.166 310.989,654 314,655.5C 316.428,654.355 318.762,653.022 321,651.5C 322.865,652.368 324.698,652.034 326.5,650.5C 329.534,652.385 329.701,654.052 327,655.5C 324.894,659.363 325.894,661.03 330,660.5C 330.333,661.5 330.667,662.5 331,663.5C 331.471,661.754 332.138,660.087 333,658.5C 333.374,659.416 333.874,660.25 334.5,661C 333.692,661.308 333.025,661.808 332.5,662.5C 336.434,664.118 336.934,666.118 334,668.5C 332.866,664.86 331.866,665.193 331,669.5C 330.671,665.96 328.838,664.794 325.5,666C 329.166,666.39 329.332,667.557 326,669.5C 324.127,670.089 322.46,669.422 321,667.5C 320.667,668.167 320.333,668.833 320,669.5C 316.256,666.788 315.756,667.288 318.5,671C 315.583,672.528 312.583,673.861 309.5,675C 311.132,676.31 312.799,676.81 314.5,676.5C 313.515,678.098 313.349,679.765 314,681.5C 314.667,680.833 315.333,680.167 316,679.5C 317.503,679.835 318.836,679.835 320,679.5C 321.333,678.833 322.333,677.833 323,676.5C 323.605,678.481 324.605,678.815 326,677.5C 326.315,678.908 325.982,680.241 325,681.5C 324,681.167 323,680.833 322,680.5C 321.361,683.112 320.194,685.446 318.5,687.5C 319,688.5 319.5,689.5 320,690.5C 320.333,690.167 320.667,689.833 321,689.5C 321.684,690.784 321.517,691.951 320.5,693C 321.841,694.295 323.174,694.795 324.5,694.5C 323.282,695.803 323.615,696.803 325.5,697.5C 324.975,698.192 324.308,698.692 323.5,699C 324.416,699.374 325.25,699.874 326,700.5C 326.353,698.926 327.02,697.259 328,695.5C 328.249,696.624 328.749,697.624 329.5,698.5C 329.998,697.397 330.331,696.397 330.5,695.5C 332.271,696.035 332.604,696.869 331.5,698C 332.449,698.617 333.282,698.451 334,697.5C 335.258,701.25 337.258,702.25 340,700.5C 340.658,702.108 340.158,703.275 338.5,704C 341.157,705.767 342.99,704.934 344,701.5C 344.092,716.385 344.592,730.718 345.5,744.5C 350.844,744.334 356.177,744.501 361.5,745C 364,746.167 365.833,748 367,750.5C 367.667,759.833 367.667,769.167 367,778.5C 366.226,780.939 364.726,782.773 362.5,784C 335.06,785.154 307.56,785.654 280,785.5C 253.5,785.333 227,785.167 200.5,785C 196.192,783.696 193.692,780.862 193,776.5C 192.333,768.5 192.333,760.5 193,752.5C 193.504,748.98 195.337,746.48 198.5,745C 204.825,744.5 211.158,744.334 217.5,744.5C 217.667,724.497 217.5,704.497 217,684.5C 198.066,717.37 179.399,750.37 161,783.5C 158.503,800.507 165.669,810.84 182.5,814.5C 400.5,814.5 618.5,814.5 836.5,814.5C 855.056,810.39 862.223,799.056 858,780.5C 810.333,699.833 762.667,619.167 715,538.5C 710.532,530.561 706.366,522.561 702.5,514.5C 721.5,514.5 740.5,514.5 759.5,514.5C 759.833,514.5 760.167,514.5 760.5,514.5C 808.773,596.613 857.273,678.613 906,760.5C 915.494,778.587 916.827,797.254 910,816.5C 901.493,837.509 886.66,851.842 865.5,859.5C 859.879,860.821 854.212,861.988 848.5,863C 623,863.167 397.666,863.667 172.5,864.5C 159.573,862.866 147.907,858.2 137.5,850.5C 110.09,828.205 101.923,800.205 113,766.5C 146.934,706.908 181.267,647.575 216,588.5C 216.333,531.833 216.667,475.167 217,418.5C 221.612,405.603 230.779,398.603 244.5,397.5 Z"/></g>
<g><path style="opacity:1" fill="#fdc044" d="M 645.5,418.5 C 647.539,419.911 648.539,421.911 648.5,424.5C 557.167,424.5 465.833,424.5 374.5,424.5C 464.997,423.055 555.663,422.055 646.5,421.5C 645.873,420.583 645.539,419.583 645.5,418.5 Z"/></g>
<g><path style="opacity:1" fill="#001853" d="M 373.5,424.5 C 373.833,424.5 374.167,424.5 374.5,424.5C 465.833,424.5 557.167,424.5 648.5,424.5C 668.167,424.5 687.833,424.5 707.5,424.5C 586.961,425.17 466.294,425.837 345.5,426.5C 354.44,424.528 363.773,423.861 373.5,424.5 Z"/></g>
<g><path style="opacity:1" fill="#fb9e25" d="M 345.5,444.5 C 365.858,444.438 386.191,445.105 406.5,446.5C 399.057,457.741 391.391,468.741 383.5,479.5C 385.64,476.203 386.973,472.536 387.5,468.5C 388.675,468.719 389.675,468.386 390.5,467.5C 391.095,465.107 392.428,463.273 394.5,462C 393.692,461.692 393.025,461.192 392.5,460.5C 393.698,460.06 394.865,459.727 396,459.5C 398.534,455.75 401.368,451.584 404.5,447C 389.5,446.333 374.5,446.333 359.5,447C 361.167,447.333 362.833,447.667 364.5,448C 361.167,452.333 357.833,456.667 354.5,461C 355.023,462.614 356.356,464.114 358.5,465.5C 355.169,467.34 352.836,469.506 351.5,472C 352.5,472.333 353.5,472.667 354.5,473C 352.382,474.549 350.049,475.716 347.5,476.5C 347.846,477.696 348.346,477.696 349,476.5C 350.241,477.877 350.408,479.21 349.5,480.5C 348.808,479.975 348.308,479.308 348,478.5C 347.667,481.833 347.333,485.167 347,488.5C 346.617,487.944 346.117,487.611 345.5,487.5C 345.5,473.167 345.5,458.833 345.5,444.5 Z"/></g>
<g><path style="opacity:1" fill="#fc9218" d="M 383.5,479.5 C 381.057,483.783 378.39,487.95 375.5,492C 365.506,492.5 355.506,492.666 345.5,492.5C 345.5,490.833 345.5,489.167 345.5,487.5C 346.117,487.611 346.617,487.944 347,488.5C 347.333,485.167 347.667,481.833 348,478.5C 348.308,479.308 348.808,479.975 349.5,480.5C 350.408,479.21 350.241,477.877 349,476.5C 348.346,477.696 347.846,477.696 347.5,476.5C 350.049,475.716 352.382,474.549 354.5,473C 353.5,472.667 352.5,472.333 351.5,472C 352.836,469.506 355.169,467.34 358.5,465.5C 356.356,464.114 355.023,462.614 354.5,461C 357.833,456.667 361.167,452.333 364.5,448C 362.833,447.667 361.167,447.333 359.5,447C 374.5,446.333 389.5,446.333 404.5,447C 401.368,451.584 398.534,455.75 396,459.5C 394.865,459.727 393.698,460.06 392.5,460.5C 393.025,461.192 393.692,461.692 394.5,462C 392.428,463.273 391.095,465.107 390.5,467.5C 389.675,468.386 388.675,468.719 387.5,468.5C 386.973,472.536 385.64,476.203 383.5,479.5 Z"/></g>
<g><path style="opacity:1" fill="#1e384c" d="M 707.5,424.5 C 707.833,424.5 708.167,424.5 708.5,424.5C 732.169,424.333 755.836,424.5 779.5,425C 784.223,426.196 788.557,428.196 792.5,431C 802.698,441.441 806.365,453.941 803.5,468.5C 807.646,501.349 793.313,516.682 760.5,514.5C 760.167,514.5 759.833,514.5 759.5,514.5C 621.999,513.833 484.333,513.167 346.5,512.5C 347.457,506.561 347.79,500.561 347.5,494.5C 356.839,494.666 366.173,494.5 375.5,494C 365.506,493.5 355.506,493.334 345.5,493.5C 345.5,493.167 345.5,492.833 345.5,492.5C 355.506,492.666 365.506,492.5 375.5,492C 378.39,487.95 381.057,483.783 383.5,479.5C 391.391,468.741 399.057,457.741 406.5,446.5C 386.191,445.105 365.858,444.438 345.5,444.5C 345.5,444.167 345.5,443.833 345.5,443.5C 345.5,437.833 345.5,432.167 345.5,426.5C 466.294,425.837 586.961,425.17 707.5,424.5 Z"/></g>
<g><path style="opacity:1" fill="#031c63" d="M 536.5,491.5 C 536.586,492.496 536.252,493.329 535.5,494C 518.328,494.828 501.328,494.662 484.5,493.5C 501.17,493.667 517.837,493.5 534.5,493C 535.044,492.283 535.711,491.783 536.5,491.5 Z"/></g>
<g><path style="opacity:1" fill="#fa8f13" d="M 437.5,445.5 C 453.837,445.333 470.17,445.5 486.5,446C 475.833,461.667 465.167,477.333 454.5,493C 437.823,493.833 421.157,493.666 404.5,492.5C 415.756,476.979 426.756,461.313 437.5,445.5 Z"/></g>
<g><path style="opacity:1" fill="#fa8e12" d="M 756.5,444.5 C 762.842,444.334 769.175,444.5 775.5,445C 779,445.833 781.167,448 782,451.5C 782.667,462.833 782.667,474.167 782,485.5C 781.096,488.233 779.596,490.567 777.5,492.5C 759.534,493.806 741.534,493.806 723.5,492.5C 735.014,476.79 746.014,460.79 756.5,444.5 Z"/></g>
<g><path style="opacity:1" fill="#fa8e12" d="M 597.5,444.5 C 614.17,444.333 630.837,444.5 647.5,445C 636.296,460.573 625.463,476.406 615,492.5C 598.231,493.824 581.397,493.824 564.5,492.5C 575.551,476.464 586.551,460.464 597.5,444.5 Z"/></g>
<g><path style="opacity:1" fill="#fa8e12" d="M 677.5,444.5 C 693.837,444.333 710.17,444.5 726.5,445C 716.029,460.97 705.362,476.803 694.5,492.5C 677.51,493.666 660.51,493.833 643.5,493C 655.222,477.038 666.555,460.871 677.5,444.5 Z"/></g>
<g><path style="opacity:1" fill="#fa8f12" d="M 536.5,491.5 C 535.711,491.783 535.044,492.283 534.5,493C 517.837,493.5 501.17,493.667 484.5,493.5C 495.109,477.131 506.109,460.964 517.5,445C 534.167,444.333 550.833,444.333 567.5,445C 556.774,460.299 546.441,475.799 536.5,491.5 Z"/></g>
<g><path style="opacity:1" fill="#0c215f" d="M 756.5,444.5 C 765.177,442.868 773.844,443.368 782.5,446C 781.465,447.507 781.632,449.007 783,450.5C 783.667,462.833 783.667,475.167 783,487.5C 781.924,490.079 780.091,491.746 777.5,492.5C 779.596,490.567 781.096,488.233 782,485.5C 782.667,474.167 782.667,462.833 782,451.5C 781.167,448 779,445.833 775.5,445C 769.175,444.5 762.842,444.334 756.5,444.5 Z"/></g>
<g><path style="opacity:1" fill="#01174f" d="M 345.5,493.5 C 355.506,493.334 365.506,493.5 375.5,494C 366.173,494.5 356.839,494.666 347.5,494.5C 347.79,500.561 347.457,506.561 346.5,512.5C 484.333,513.167 621.999,513.833 759.5,514.5C 740.5,514.5 721.5,514.5 702.5,514.5C 702.167,514.5 701.833,514.5 701.5,514.5C 582.833,514.5 464.167,514.5 345.5,514.5C 345.5,507.5 345.5,500.5 345.5,493.5 Z"/></g>
<g><path style="opacity:1" fill="#fdce47" d="M 345.5,515.5 C 345.5,515.167 345.5,514.833 345.5,514.5C 464.167,514.5 582.833,514.5 701.5,514.5C 691.432,515.178 681.265,515.844 671,516.5C 562.422,515.506 453.922,515.173 345.5,515.5 Z"/></g>
<g><path style="opacity:1" fill="#fc880f" d="M 334.5,392.5 C 333.914,394.84 332.914,397.007 331.5,399C 332.623,400.044 333.956,400.71 335.5,401C 334.549,401.718 334.383,402.551 335,403.5C 341.181,407.814 344.681,413.814 345.5,421.5C 345.06,423.765 344.394,425.932 343.5,428C 344.145,433.267 344.812,438.433 345.5,443.5C 345.5,443.833 345.5,444.167 345.5,444.5C 345.5,458.833 345.5,473.167 345.5,487.5C 345.5,489.167 345.5,490.833 345.5,492.5C 345.5,492.833 345.5,493.167 345.5,493.5C 345.5,500.5 345.5,507.5 345.5,514.5C 345.5,514.833 345.5,515.167 345.5,515.5C 345.5,591.833 345.5,668.167 345.5,744.5C 344.592,730.718 344.092,716.385 344,701.5C 342.99,704.934 341.157,705.767 338.5,704C 340.158,703.275 340.658,702.108 340,700.5C 337.258,702.25 335.258,701.25 334,697.5C 333.282,698.451 332.449,698.617 331.5,698C 332.604,696.869 332.271,696.035 330.5,695.5C 330.331,696.397 329.998,697.397 329.5,698.5C 328.749,697.624 328.249,696.624 328,695.5C 327.02,697.259 326.353,698.926 326,700.5C 325.25,699.874 324.416,699.374 323.5,699C 324.308,698.692 324.975,698.192 325.5,697.5C 323.615,696.803 323.282,695.803 324.5,694.5C 323.174,694.795 321.841,694.295 320.5,693C 321.517,691.951 321.684,690.784 321,689.5C 320.667,689.833 320.333,690.167 320,690.5C 319.5,689.5 319,688.5 318.5,687.5C 320.194,685.446 321.361,683.112 322,680.5C 323,680.833 324,681.167 325,681.5C 325.982,680.241 326.315,678.908 326,677.5C 324.605,678.815 323.605,678.481 323,676.5C 322.333,677.833 321.333,678.833 320,679.5C 318.836,679.835 317.503,679.835 316,679.5C 315.333,680.167 314.667,680.833 314,681.5C 313.349,679.765 313.515,678.098 314.5,676.5C 312.799,676.81 311.132,676.31 309.5,675C 312.583,673.861 315.583,672.528 318.5,671C 315.756,667.288 316.256,666.788 320,669.5C 320.333,668.833 320.667,668.167 321,667.5C 322.46,669.422 324.127,670.089 326,669.5C 329.332,667.557 329.166,666.39 325.5,666C 328.838,664.794 330.671,665.96 331,669.5C 331.866,665.193 332.866,664.86 334,668.5C 336.934,666.118 336.434,664.118 332.5,662.5C 333.025,661.808 333.692,661.308 334.5,661C 333.874,660.25 333.374,659.416 333,658.5C 332.138,660.087 331.471,661.754 331,663.5C 330.667,662.5 330.333,661.5 330,660.5C 325.894,661.03 324.894,659.363 327,655.5C 329.701,654.052 329.534,652.385 326.5,650.5C 324.698,652.034 322.865,652.368 321,651.5C 318.762,653.022 316.428,654.355 314,655.5C 310.989,654 311.489,653.166 315.5,653C 314.833,651.667 314.167,650.333 313.5,649C 314.167,648.667 314.833,648.333 315.5,648C 313.956,647.71 312.623,647.044 311.5,646C 312.931,645.535 314.097,644.701 315,643.5C 315.333,644.167 315.667,644.833 316,645.5C 316.689,644.643 317.522,643.977 318.5,643.5C 319.731,642.349 319.731,641.183 318.5,640C 320.061,639.682 321.228,638.849 322,637.5C 324.349,639.744 323.849,640.911 320.5,641C 323.167,641.667 323.167,642.333 320.5,643C 322.208,644.062 322.874,645.229 322.5,646.5C 323.799,645.91 324.632,644.91 325,643.5C 327.129,645.742 328.962,645.242 330.5,642C 325.541,641.972 324.707,640.472 328,637.5C 329.343,638.214 330.676,637.88 332,636.5C 332.667,637.833 333.667,638.833 335,639.5C 334.917,637.715 333.917,636.382 332,635.5C 330.422,636.547 328.922,636.547 327.5,635.5C 328.55,633.898 327.883,633.065 325.5,633C 327.749,632.137 329.582,632.637 331,634.5C 331.333,633.5 331.667,632.5 332,631.5C 332.914,632.654 333.747,632.487 334.5,631C 332.667,629.833 331.167,628.333 330,626.5C 328.213,627.343 326.38,627.51 324.5,627C 325.167,628 325.833,629 326.5,630C 324.789,631.435 323.622,633.269 323,635.5C 322.333,632.833 321.667,632.833 321,635.5C 321.322,632.46 320.988,629.46 320,626.5C 320.333,627.167 320.667,627.833 321,628.5C 323.585,626.983 325.085,625.149 325.5,623C 324.256,622.544 323.423,623.044 323,624.5C 322.308,623.975 321.808,623.308 321.5,622.5C 322.736,621.643 324.069,620.977 325.5,620.5C 327.412,622.156 329.412,622.489 331.5,621.5C 330.764,619.459 329.931,617.459 329,615.5C 327.12,616.93 325.62,616.596 324.5,614.5C 325.5,613.833 326.5,613.167 327.5,612.5C 327.291,611.914 326.957,611.414 326.5,611C 324.557,611.305 322.557,611.305 320.5,611C 324.634,608.449 324.467,606.283 320,604.5C 318.176,605.749 318.343,606.915 320.5,608C 318.304,609.352 316.138,609.852 314,609.5C 313.869,606.629 312.703,604.295 310.5,602.5C 310.709,601.914 311.043,601.414 311.5,601C 310.167,600.667 308.833,600.333 307.5,600C 309.83,595.617 312.33,595.45 315,599.5C 317.77,596.471 317.936,593.637 315.5,591C 317.533,588.694 319.2,586.694 320.5,585C 319.449,583.615 318.116,582.615 316.5,582C 317.833,581.667 319.167,581.333 320.5,581C 319.167,579.16 319.334,578.66 321,579.5C 321.833,578.5 322.667,577.5 323.5,576.5C 323.294,578.61 324.127,580.61 326,582.5C 327.595,580.575 327.762,578.575 326.5,576.5C 330.376,574.484 330.376,573.651 326.5,574C 327.833,573.333 327.833,572.667 326.5,572C 328.516,571.101 330.183,569.767 331.5,568C 330.151,567.228 329.318,566.061 329,564.5C 327.244,565.421 327.077,566.588 328.5,568C 327.022,569.478 325.522,570.978 324,572.5C 321.031,571.397 320.864,570.064 323.5,568.5C 323.167,568.167 322.833,567.833 322.5,567.5C 319.326,569.969 315.993,570.136 312.5,568C 313.672,567.581 314.672,566.915 315.5,566C 312.456,565.641 312.122,564.974 314.5,564C 313.386,562.551 312.386,561.217 311.5,560C 312.167,559 312.833,558 313.5,557C 311.754,556.529 310.087,555.862 308.5,555C 309.167,554.333 309.833,553.667 310.5,553C 308.868,551.69 307.201,551.19 305.5,551.5C 304.5,552.167 303.5,552.833 302.5,553.5C 301.289,552.726 301.289,551.893 302.5,551C 301.975,550.308 301.308,549.808 300.5,549.5C 299.756,550.991 299.09,552.491 298.5,554C 297.668,554.688 297.002,554.521 296.5,553.5C 296.857,550.772 298.024,548.105 300,545.5C 301.487,546.253 301.654,547.086 300.5,548C 302.23,549.852 303.396,549.686 304,547.5C 305.427,549.787 307.261,550.12 309.5,548.5C 312.619,545.6 312.119,543.933 308,543.5C 305.7,544.775 303.533,544.441 301.5,542.5C 300.346,544.856 299.013,545.023 297.5,543C 297.5,541.667 297.5,540.333 297.5,539C 298.416,538.626 299.25,538.126 300,537.5C 301.268,537.616 302.602,537.949 304,538.5C 304.617,537.551 304.451,536.718 303.5,536C 304.672,535.581 305.672,534.915 306.5,534C 304.395,532.807 302.728,531.14 301.5,529C 302.167,528 302.833,527 303.5,526C 302.328,525.581 301.328,524.915 300.5,524C 301.258,522.636 300.758,521.469 299,520.5C 297.927,521.28 296.76,521.113 295.5,520C 296.833,519.333 297.833,518.333 298.5,517C 295.833,516 295.833,515 298.5,514C 297.529,512.796 296.529,512.296 295.5,512.5C 298.494,510.339 301.161,507.839 303.5,505C 300.584,504.951 299.584,503.784 300.5,501.5C 299.624,500.749 298.624,500.249 297.5,500C 297.694,498.097 297.694,496.263 297.5,494.5C 297.167,494.167 296.833,493.833 296.5,493.5C 295.77,494.934 294.77,496.1 293.5,497C 296.544,497.359 296.878,498.026 294.5,499C 295.833,499.667 295.833,500.333 294.5,501C 297.994,502.75 298.161,504.584 295,506.5C 294.072,504.665 292.906,504.332 291.5,505.5C 289.925,504.1 288.259,503.267 286.5,503C 288.009,499.59 288.842,496.09 289,492.5C 289.948,490.43 291.448,488.93 293.5,488C 292.167,487.667 290.833,487.333 289.5,487C 294.152,487.349 296.652,485.183 297,480.5C 297.75,479.874 298.584,479.374 299.5,479C 297.5,478.667 295.5,478.333 293.5,478C 296.557,477.744 299.557,477.244 302.5,476.5C 302.296,477.529 302.796,478.529 304,479.5C 304.783,477.567 304.283,476.067 302.5,475C 302.833,474.667 303.167,474.333 303.5,474C 302.5,473.667 301.5,473.333 300.5,473C 301.833,472.333 303.167,471.667 304.5,471C 303.09,470.632 302.09,469.799 301.5,468.5C 302.924,466.282 304.924,464.782 307.5,464C 307.167,463.667 306.833,463.333 306.5,463C 307.793,462.51 309.127,462.343 310.5,462.5C 310.36,464.124 311.027,465.29 312.5,466C 311.833,466.667 311.167,467.333 310.5,468C 313.77,469.024 315.437,468.191 315.5,465.5C 316.251,466.376 316.751,467.376 317,468.5C 317.283,465.258 318.117,464.924 319.5,467.5C 320.262,466.372 320.929,465.205 321.5,464C 320.464,462.383 319.297,462.216 318,463.5C 317.385,461.884 316.385,460.551 315,459.5C 312.232,462.088 310.232,461.755 309,458.5C 308.577,459.956 307.744,460.456 306.5,460C 307.119,458.165 307.286,455.999 307,453.5C 306.751,454.624 306.251,455.624 305.5,456.5C 303.216,455.584 302.049,456.584 302,459.5C 301.781,458.062 301.281,456.729 300.5,455.5C 299.268,456.145 297.935,456.311 296.5,456C 297.34,457.666 296.84,457.833 295,456.5C 294.333,459.167 293.667,459.167 293,456.5C 290.871,457.863 290.371,457.529 291.5,455.5C 289.816,454.146 289.316,452.479 290,450.5C 291.676,449.939 293.009,448.939 294,447.5C 294.249,448.624 294.749,449.624 295.5,450.5C 295.833,450.333 296.167,450.167 296.5,450C 295.167,448.333 295.167,446.667 296.5,445C 295.687,443.686 294.687,442.519 293.5,441.5C 294.833,440.38 295.333,439.047 295,437.5C 293.092,440.332 292.259,439.999 292.5,436.5C 290.645,436.728 289.812,436.061 290,434.5C 291.388,435.554 292.888,435.72 294.5,435C 292.695,432.597 290.362,430.93 287.5,430C 288.749,428.176 289.915,428.343 291,430.5C 291.667,429.167 292.333,429.167 293,430.5C 293.569,426.639 294.402,426.639 295.5,430.5C 296.833,429.167 298.167,429.167 299.5,430.5C 300.192,429.975 300.692,429.308 301,428.5C 301.249,429.624 301.749,430.624 302.5,431.5C 302.833,431.167 303.167,430.833 303.5,430.5C 302.282,429.197 302.615,428.197 304.5,427.5C 303.033,427.277 301.533,426.944 300,426.5C 299.626,425.584 299.126,424.75 298.5,424C 300.891,422.691 300.891,421.691 298.5,421C 300.69,422.235 303.023,422.735 305.5,422.5C 306.308,422.192 306.975,421.692 307.5,421C 306.845,419.513 305.845,418.347 304.5,417.5C 303.28,418.711 302.113,418.711 301,417.5C 300.667,418.167 300.333,418.833 300,419.5C 298.235,416.659 298.402,413.826 300.5,411C 297.007,409.912 296.841,408.745 300,407.5C 300.667,408.833 301.667,409.833 303,410.5C 303.432,407.921 302.265,406.421 299.5,406C 301.37,405.025 303.37,404.525 305.5,404.5C 306.063,402.291 307.396,400.791 309.5,400C 289.5,399.667 269.5,399.333 249.5,399C 247.618,398.802 245.952,398.302 244.5,397.5C 270.835,397.333 297.169,397.5 323.5,398C 325,398.5 326.5,399 328,399.5C 330.625,397.575 332.792,395.242 334.5,392.5 Z"/></g>
<g><path style="opacity:1" fill="#feb144" d="M 701.5,514.5 C 701.833,514.5 702.167,514.5 702.5,514.5C 706.366,522.561 710.532,530.561 715,538.5C 762.667,619.167 810.333,699.833 858,780.5C 862.223,799.056 855.056,810.39 836.5,814.5C 772.001,813.667 707.335,813.167 642.5,813C 647.523,812.107 652.523,811.107 657.5,810C 656.944,809.617 656.611,809.117 656.5,808.5C 690.78,799.203 717.78,779.87 737.5,750.5C 743.869,741.763 748.702,732.096 752,721.5C 752.5,720.333 753.333,719.5 754.5,719C 754.043,718.586 753.709,718.086 753.5,717.5C 755.188,711.896 756.688,706.229 758,700.5C 759.613,701.622 760.78,701.122 761.5,699C 760.552,698.517 759.552,698.351 758.5,698.5C 759.653,687.104 759.653,676.437 758.5,666.5C 757.622,662.664 756.956,658.664 756.5,654.5C 744.645,598.474 711.311,561.974 656.5,545C 594.622,533.039 545.456,552.539 509,603.5C 496.751,623.079 489.585,644.412 487.5,667.5C 487.342,677.191 487.675,686.857 488.5,696.5C 495.888,739.998 518.555,772.664 556.5,794.5C 559.773,797.144 563.44,799.311 567.5,801C 574.16,803.827 580.827,806.327 587.5,808.5C 586.262,808.81 586.262,809.31 587.5,810C 592.469,811.159 597.469,812.159 602.5,813C 462.333,813.167 322.333,813.667 182.5,814.5C 165.669,810.84 158.503,800.507 161,783.5C 179.399,750.37 198.066,717.37 217,684.5C 217.5,704.497 217.667,724.497 217.5,744.5C 211.158,744.334 204.825,744.5 198.5,745C 195.337,746.48 193.504,748.98 193,752.5C 192.333,760.5 192.333,768.5 193,776.5C 193.692,780.862 196.192,783.696 200.5,785C 227,785.167 253.5,785.333 280,785.5C 307.56,785.654 335.06,785.154 362.5,784C 364.726,782.773 366.226,780.939 367,778.5C 367.667,769.167 367.667,759.833 367,750.5C 365.833,748 364,746.167 361.5,745C 356.177,744.501 350.844,744.334 345.5,744.5C 345.5,668.167 345.5,591.833 345.5,515.5C 453.922,515.173 562.422,515.506 671,516.5C 681.265,515.844 691.432,515.178 701.5,514.5 Z"/></g>
<g><path style="opacity:1" fill="#1e384c" d="M 756.5,654.5 C 755.844,655.622 755.511,656.955 755.5,658.5C 756.073,669.327 756.74,679.994 757.5,690.5C 755.02,711.941 748.353,731.941 737.5,750.5C 717.78,779.87 690.78,799.203 656.5,808.5C 634.38,813.804 612.38,813.804 590.5,808.5C 591.239,808.631 591.906,808.464 592.5,808C 579.995,804.777 567.995,800.277 556.5,794.5C 518.555,772.664 495.888,739.998 488.5,696.5C 489.16,695.036 489.493,693.369 489.5,691.5C 489.005,683.332 488.338,675.332 487.5,667.5C 489.585,644.412 496.751,623.079 509,603.5C 545.456,552.539 594.622,533.039 656.5,545C 711.311,561.974 744.645,598.474 756.5,654.5 Z"/></g>
<g><path style="opacity:1" fill="#ee5911" d="M 608.5,576.5 C 649.992,573.14 682.826,588.14 707,621.5C 725.913,652.125 728.58,684.125 715,717.5C 712.423,723.66 709.09,729.327 705,734.5C 657.861,688.361 611.028,641.861 564.5,595C 577.948,585.771 592.615,579.605 608.5,576.5 Z"/></g>
<g><path style="opacity:1" fill="#0b1b51" d="M 487.5,667.5 C 488.338,675.332 489.005,683.332 489.5,691.5C 489.493,693.369 489.16,695.036 488.5,696.5C 487.675,686.857 487.342,677.191 487.5,667.5 Z"/></g>
<g><path style="opacity:1" fill="#252750" d="M 756.5,654.5 C 756.956,658.664 757.622,662.664 758.5,666.5C 758.656,674.529 758.323,682.529 757.5,690.5C 756.74,679.994 756.073,669.327 755.5,658.5C 755.511,656.955 755.844,655.622 756.5,654.5 Z"/></g>
<g><path style="opacity:1" fill="#f1c045" d="M 737.5,750.5 C 748.353,731.941 755.02,711.941 757.5,690.5C 758.323,682.529 758.656,674.529 758.5,666.5C 759.653,676.437 759.653,687.104 758.5,698.5C 759.552,698.351 760.552,698.517 761.5,699C 760.78,701.122 759.613,701.622 758,700.5C 756.688,706.229 755.188,711.896 753.5,717.5C 753.709,718.086 754.043,718.586 754.5,719C 753.333,719.5 752.5,720.333 752,721.5C 748.702,732.096 743.869,741.763 737.5,750.5 Z"/></g>
<g><path style="opacity:1" fill="#ee5911" d="M 540.5,618.5 C 587.557,665.057 634.557,711.89 681.5,759C 653.782,777.73 623.782,782.397 591.5,773C 541.668,753.121 518.835,716.288 523,662.5C 525.611,646.491 531.444,631.824 540.5,618.5 Z"/></g>
<g><path style="opacity:1" fill="#16214f" d="M 556.5,794.5 C 567.995,800.277 579.995,804.777 592.5,808C 591.906,808.464 591.239,808.631 590.5,808.5C 589.5,808.5 588.5,808.5 587.5,808.5C 580.827,806.327 574.16,803.827 567.5,801C 563.44,799.311 559.773,797.144 556.5,794.5 Z"/></g>
<g><path style="opacity:1" fill="#fdbf56" d="M 587.5,808.5 C 588.5,808.5 589.5,808.5 590.5,808.5C 612.38,813.804 634.38,813.804 656.5,808.5C 656.611,809.117 656.944,809.617 657.5,810C 652.523,811.107 647.523,812.107 642.5,813C 707.335,813.167 772.001,813.667 836.5,814.5C 618.5,814.5 400.5,814.5 182.5,814.5C 322.333,813.667 462.333,813.167 602.5,813C 597.469,812.159 592.469,811.159 587.5,810C 586.262,809.31 586.262,808.81 587.5,808.5 Z"/></g>
<g><path style="opacity:1" fill="#fb810f" d="M 865.5,859.5 C 864.158,860.793 862.491,861.626 860.5,862C 855.209,863.215 849.876,864.215 844.5,865C 620.473,865.83 396.473,865.664 172.5,864.5C 397.666,863.667 623,863.167 848.5,863C 854.212,861.988 859.879,860.821 865.5,859.5 Z"/></g>
</svg>
